<?xml version="1.0" standalone="no"?>
<!DOCTYPE svg PUBLIC "-//W3C//DTD SVG 20010904//EN"
 "http://www.w3.org/TR/2001/REC-SVG-20010904/DTD/svg10.dtd">
<svg version="1.0" xmlns="http://www.w3.org/2000/svg"
 width="579.000000pt" height="320.000000pt" viewBox="0 0 579.000000 320.000000"
 preserveAspectRatio="xMidYMid meet">

<g transform="translate(0.000000,320.000000) scale(0.100000,-0.100000)"
fill="#000000" stroke="none">
<path d="M782 2078 l-262 -150 0 -298 0 -298 258 -147 c141 -81 260 -149 263
-151 3 -2 122 64 265 145 l259 148 3 301 2 300 -257 147 c-142 81 -260 149
-263 150 -3 2 -124 -64 -268 -147z m458 -72 l182 -104 -52 -30 -52 -30 -131
76 c-73 41 -136 75 -142 75 -5 0 -68 -34 -140 -76 l-130 -75 -48 26 c-26 14
-46 29 -45 34 4 11 349 208 364 208 6 0 94 -47 194 -104z m-240 -251 l0 -94
-67 -39 c-38 -22 -78 -45 -90 -51 l-23 -12 0 99 0 98 83 47 c45 26 85 47 90
47 4 0 7 -43 7 -95z m193 47 l77 -43 0 -101 0 -100 -67 38 c-38 20 -76 42 -85
48 -15 9 -18 26 -18 109 0 54 3 97 8 95 4 -1 42 -22 85 -46z m-517 -17 l43
-26 3 -157 3 -157 138 -79 137 -79 0 -53 c0 -30 -5 -54 -10 -54 -6 0 -91 46
-190 103 l-180 102 0 213 c0 116 3 212 7 212 3 0 26 -11 49 -25z m794 -188 l0
-213 -179 -102 c-98 -56 -182 -102 -185 -102 -4 0 -6 26 -4 57 l3 57 132 76
133 75 0 156 0 157 43 26 c23 14 45 25 50 26 4 0 7 -96 7 -213z m-337 -73 c42
-24 77 -48 77 -52 0 -7 -135 -84 -157 -90 -13 -4 -159 73 -168 88 -5 8 140 99
160 99 6 1 45 -20 88 -45z"/>
<path d="M1955 2111 c-140 -64 -178 -234 -79 -350 67 -78 180 -103 274 -60 76
34 80 41 80 136 l0 83 -70 0 c-38 0 -70 -2 -70 -4 0 -3 4 -16 10 -30 7 -20 16
-26 40 -26 28 0 30 -2 30 -39 0 -31 -5 -42 -27 -57 -44 -28 -114 -30 -167 -4
-120 58 -127 218 -11 285 40 24 54 27 101 22 30 -3 66 -14 83 -26 l28 -20 22
23 23 24 -48 28 c-63 37 -158 43 -219 15z"/>
<path d="M2960 2125 c0 -2 5 -14 10 -27 9 -20 -2 -50 -80 -210 -49 -103 -90
-190 -90 -193 0 -13 68 -4 74 10 11 29 71 45 169 45 l95 0 12 -30 c10 -25 18
-30 47 -30 24 0 34 4 30 13 -2 6 -49 105 -103 220 l-97 207 -34 0 c-18 0 -33
-2 -33 -5z m105 -227 c19 -37 35 -72 35 -78 0 -6 -27 -10 -64 -10 -36 0 -76
-4 -90 -10 -14 -5 -26 -8 -26 -6 0 2 21 48 46 102 50 109 44 109 99 2z"/>
<path d="M3844 2115 c3 -8 8 -21 11 -28 3 -7 -32 -89 -79 -183 -107 -217 -105
-214 -68 -214 16 0 36 7 43 17 26 30 76 43 172 43 l95 0 12 -30 c10 -25 18
-30 47 -30 19 0 33 4 31 9 -1 4 -48 103 -103 220 l-100 211 -34 0 c-25 0 -32
-3 -27 -15z m136 -296 c0 -5 -32 -9 -71 -9 -39 0 -79 -5 -90 -10 -10 -6 -19
-8 -19 -5 0 3 20 49 45 103 l46 97 44 -84 c25 -45 45 -87 45 -92z"/>
<path d="M2330 1984 c0 -154 11 -209 47 -249 76 -81 252 -71 317 18 19 26 21
45 24 198 l3 169 -30 0 -30 0 -3 -160 c-3 -158 -3 -160 -30 -187 -36 -35 -125
-43 -178 -16 -49 25 -59 62 -59 226 l-1 137 -30 0 -30 0 0 -136z"/>
<path d="M3270 2090 l0 -30 80 0 80 0 0 -185 0 -185 30 0 30 0 0 185 0 185 75
0 75 0 0 30 0 30 -185 0 -185 0 0 -30z"/>
<path d="M4200 1905 l0 -215 30 0 30 0 0 84 c0 97 -2 96 113 96 119 0 169 38
169 126 0 51 -22 90 -63 111 -15 8 -70 13 -151 13 l-128 0 0 -215z m270 135
c6 -8 9 -31 8 -50 -4 -45 -28 -57 -135 -62 l-83 -5 0 70 0 69 100 -4 c76 -2
103 -7 110 -18z"/>
<path d="M4640 1905 l0 -215 165 0 165 0 0 30 0 30 -135 0 -135 0 0 55 c0 50
2 56 26 65 14 6 54 10 90 10 l64 0 0 31 0 32 -90 -5 -90 -5 0 63 0 64 125 0
125 0 0 30 0 30 -155 0 -155 0 0 -215z"/>
<path d="M2000 1550 c-107 -23 -180 -102 -180 -198 0 -166 164 -269 316 -198
63 29 70 40 49 72 l-17 26 -29 -28 c-23 -22 -40 -28 -86 -31 -70 -5 -117 16
-151 67 -20 29 -23 45 -20 93 4 49 9 62 38 92 57 58 133 67 207 25 30 -18 32
-18 48 0 21 23 14 35 -33 59 -47 23 -97 31 -142 21z"/>
<path d="M2890 1526 c8 -21 -5 -54 -75 -201 -47 -97 -85 -178 -85 -181 0 -13
57 -1 76 17 27 25 84 38 176 39 65 0 66 -1 77 -30 8 -26 15 -30 45 -30 l34 0
-96 205 c-97 204 -97 205 -129 205 -30 0 -32 -2 -23 -24z m85 -185 l41 -79
-66 -6 c-36 -3 -75 -9 -87 -12 -21 -6 -20 0 20 85 23 50 44 91 47 91 3 0 23
-36 45 -79z"/>
<path d="M2290 1340 l0 -200 30 0 30 0 0 90 c0 64 4 90 13 92 6 1 60 2 119 2
l108 1 0 -92 0 -93 30 0 30 0 0 200 0 200 -30 0 -30 0 0 -80 0 -81 -120 3
-120 3 0 78 0 77 -30 0 -30 0 0 -200z"/>
<path d="M3209 1514 c19 -25 21 -40 21 -200 l0 -174 30 0 29 0 3 136 3 135 66
-80 66 -80 64 79 c35 44 67 79 72 80 4 0 7 -61 7 -135 l0 -135 25 0 25 0 0
171 c0 158 2 173 21 197 l21 27 -33 3 c-31 4 -39 -2 -84 -54 -27 -32 -66 -76
-86 -98 l-36 -39 -79 96 c-74 90 -81 96 -117 96 l-38 1 20 -26z"/>
<path d="M3760 1340 l0 -200 125 0 c135 0 169 9 199 52 25 35 20 101 -8 135
-21 25 -22 31 -10 48 8 10 14 39 14 63 0 36 -5 49 -31 73 -31 29 -32 29 -160
29 l-129 0 0 -200z m252 132 c14 -14 13 -59 -2 -77 -8 -9 -30 -15 -59 -15 -25
-1 -65 -5 -88 -9 l-43 -8 0 65 0 65 91 -5 c50 -3 95 -10 101 -16z m16 -176
c20 -20 18 -64 -4 -81 -13 -10 -48 -14 -112 -15 l-93 0 3 52 c3 50 5 53 33 60
46 11 157 0 173 -16z"/>
<path d="M4200 1340 l0 -200 155 0 155 0 0 30 0 30 -125 0 -125 0 0 49 c0 28
5 53 12 57 6 4 44 9 85 12 l73 5 0 30 0 30 -67 -6 c-38 -3 -76 -9 -86 -13 -16
-6 -18 -1 -15 57 l3 64 113 3 c112 3 112 3 112 27 l0 25 -145 0 -145 0 0 -200z"/>
<path d="M4610 1340 l0 -200 30 0 30 0 0 74 c0 41 4 77 9 80 4 3 33 8 62 12
l54 6 24 -56 c31 -75 72 -116 117 -116 31 0 34 3 34 29 0 25 -4 30 -27 33 -22
2 -34 14 -56 56 l-28 52 24 9 c41 16 67 58 67 108 0 38 -5 50 -34 79 l-34 34
-136 0 -136 0 0 -200z m264 131 c20 -17 21 -74 2 -90 -8 -7 -41 -14 -73 -17
-32 -3 -75 -6 -95 -8 l-38 -4 0 70 0 70 94 -4 c58 -2 100 -9 110 -17z"/>
</g>
</svg>
