<?xml version="1.0" encoding="UTF-8"?>
<svg xmlns="http://www.w3.org/2000/svg" xmlns:xlink="http://www.w3.org/1999/xlink" width="80px" height="75px" viewBox="0 0 80 75" version="1.1">
<g id="surface1">
<path style=" stroke:none;fill-rule:nonzero;fill:rgb(46.27451%,27.058825%,12.156863%);fill-opacity:1;" d="M 0 0 C 26.398438 0 52.800781 0 80 0 C 80 24.75 80 49.5 80 75 C 53.601562 75 27.199219 75 0 75 C 0 50.25 0 25.5 0 0 Z M 0 0 "/>
<path style=" stroke:none;fill-rule:nonzero;fill:rgb(91.764706%,86.666667%,56.078434%);fill-opacity:1;" d="M 37.988281 28.707031 C 37.90625 28.839844 37.824219 28.96875 37.742188 29.105469 C 37.632812 29.28125 37.523438 29.460938 37.410156 29.640625 C 37.304688 29.816406 37.199219 29.988281 37.085938 30.167969 C 36.246094 31.726562 36.152344 33.4375 36.382812 35.175781 C 36.625 35.921875 36.957031 36.542969 37.386719 37.195312 C 37.507812 37.40625 37.628906 37.613281 37.75 37.828125 C 37.871094 38.015625 37.871094 38.015625 37.988281 38.207031 C 36.941406 38.847656 35.757812 38.726562 34.574219 38.613281 C 33.46875 38.285156 32.714844 37.660156 31.960938 36.792969 C 31.816406 36.628906 31.667969 36.46875 31.519531 36.300781 C 30.632812 35.035156 30.574219 33.648438 30.753906 32.144531 C 31.292969 30.417969 32.292969 29.4375 33.792969 28.53125 C 35.042969 28.046875 36.835938 27.996094 37.988281 28.707031 Z M 37.988281 28.707031 "/>
<path style=" stroke:none;fill-rule:nonzero;fill:rgb(86.666667%,79.215688%,49.803922%);fill-opacity:1;" d="M 44.835938 21.824219 C 44.964844 21.894531 45.09375 21.964844 45.226562 22.035156 C 45.53125 22.191406 45.53125 22.191406 45.84375 22.347656 C 46.433594 22.84375 46.433594 22.84375 46.59375 23.601562 C 46.605469 23.90625 46.609375 24.210938 46.605469 24.515625 C 46.609375 24.679688 46.609375 24.839844 46.613281 25.007812 C 46.617188 25.347656 46.613281 25.691406 46.613281 26.035156 C 46.609375 26.554688 46.621094 27.074219 46.632812 27.597656 C 46.652344 29.996094 46.652344 29.996094 46.097656 30.820312 C 45.023438 31.675781 43.929688 31.765625 42.601562 31.765625 C 42.292969 31.765625 42.292969 31.765625 41.976562 31.765625 C 41.484375 31.742188 41.074219 31.679688 40.601562 31.535156 C 40.871094 30.808594 41.207031 30.179688 41.609375 29.515625 C 42.472656 28.023438 42.417969 26.390625 42.109375 24.71875 C 41.796875 23.675781 41.269531 22.886719 40.601562 22.035156 C 41.226562 20.78125 43.78125 21.394531 44.835938 21.824219 Z M 44.835938 21.824219 "/>
<path style=" stroke:none;fill-rule:nonzero;fill:rgb(83.92157%,75.686276%,47.058824%);fill-opacity:1;" d="M 40.601562 6.46875 C 40.765625 6.527344 40.925781 6.582031 41.09375 6.640625 C 41.625 6.839844 42.152344 7.046875 42.683594 7.261719 C 42.875 7.339844 43.070312 7.417969 43.273438 7.496094 C 43.890625 7.742188 44.507812 7.988281 45.125 8.238281 C 45.9375 8.5625 46.746094 8.886719 47.554688 9.207031 C 47.753906 9.285156 47.949219 9.363281 48.152344 9.445312 C 49.488281 9.972656 50.832031 10.472656 52.195312 10.941406 C 53.125 11.261719 54.003906 11.644531 54.890625 12.070312 C 55.792969 12.472656 56.71875 12.800781 57.644531 13.128906 C 58.671875 13.5 58.671875 13.5 58.894531 13.949219 C 57.464844 13.824219 56.15625 13.339844 54.800781 12.886719 C 54.289062 12.71875 53.78125 12.554688 53.269531 12.386719 C 53.027344 12.304688 52.78125 12.226562 52.527344 12.144531 C 51.726562 11.882812 50.921875 11.640625 50.113281 11.410156 C 48.71875 11.007812 47.335938 10.566406 45.953125 10.121094 C 45.742188 10.050781 45.527344 9.984375 45.304688 9.910156 C 44.300781 9.589844 43.300781 9.261719 42.304688 8.917969 C 42.046875 8.832031 42.046875 8.832031 41.785156 8.742188 C 41.46875 8.636719 41.15625 8.53125 40.84375 8.417969 C 40.628906 8.347656 40.628906 8.347656 40.414062 8.273438 C 40.234375 8.210938 40.234375 8.210938 40.050781 8.148438 C 38.777344 7.972656 37.53125 8.390625 36.332031 8.78125 C 36.101562 8.855469 36.101562 8.855469 35.863281 8.929688 C 35.367188 9.089844 34.867188 9.25 34.371094 9.414062 C 34.027344 9.523438 33.683594 9.632812 33.335938 9.746094 C 31.445312 10.351562 29.558594 10.976562 27.675781 11.613281 C 26.3125 12.074219 24.945312 12.527344 23.566406 12.949219 C 23.429688 12.996094 23.292969 13.039062 23.148438 13.082031 C 22.472656 13.285156 21.976562 13.410156 21.304688 13.140625 C 22.246094 12.40625 23.191406 12.082031 24.324219 11.722656 C 24.828125 11.554688 25.296875 11.367188 25.777344 11.144531 C 26.546875 10.785156 27.324219 10.488281 28.121094 10.195312 C 29.277344 9.765625 30.425781 9.3125 31.566406 8.847656 C 32.335938 8.535156 33.101562 8.226562 33.871094 7.917969 C 34.265625 7.761719 34.660156 7.597656 35.054688 7.4375 C 35.632812 7.199219 36.214844 6.964844 36.796875 6.734375 C 36.96875 6.660156 37.144531 6.585938 37.324219 6.511719 C 38.554688 6.03125 39.359375 6.03125 40.601562 6.46875 Z M 40.601562 6.46875 "/>
<path style=" stroke:none;fill-rule:nonzero;fill:rgb(83.92157%,75.686276%,47.058824%);fill-opacity:1;" d="M 19.496094 58.019531 C 21.039062 58.511719 22.535156 59.105469 24.03125 59.71875 C 24.296875 59.828125 24.5625 59.933594 24.828125 60.042969 C 25.523438 60.324219 26.21875 60.609375 26.914062 60.890625 C 27.605469 61.171875 28.296875 61.453125 28.984375 61.734375 C 29.1875 61.816406 29.1875 61.816406 29.394531 61.902344 C 30.070312 62.175781 30.746094 62.449219 31.421875 62.722656 C 32.703125 63.242188 33.976562 63.765625 35.25 64.300781 C 35.59375 64.445312 35.59375 64.445312 35.945312 64.589844 C 36.375 64.769531 36.800781 64.949219 37.230469 65.132812 C 38.675781 65.730469 39.433594 65.742188 40.875 65.144531 C 41.214844 64.996094 41.550781 64.84375 41.886719 64.6875 C 42.160156 64.566406 42.160156 64.566406 42.441406 64.441406 C 43.023438 64.179688 43.601562 63.917969 44.183594 63.652344 C 44.941406 63.3125 45.703125 62.96875 46.460938 62.628906 C 46.738281 62.503906 46.738281 62.503906 47.023438 62.375 C 48.324219 61.792969 49.632812 61.234375 50.953125 60.699219 C 52.003906 60.273438 53.027344 59.800781 54.054688 59.316406 C 56.851562 58.019531 56.851562 58.019531 57.6875 58.019531 C 57.6875 58.152344 57.6875 58.285156 57.6875 58.421875 C 57.351562 58.589844 57.351562 58.589844 57.011719 58.761719 C 56.160156 59.1875 55.3125 59.613281 54.464844 60.039062 C 54.097656 60.222656 53.734375 60.402344 53.371094 60.585938 C 51.148438 61.699219 48.9375 62.835938 46.742188 64.003906 C 45.449219 64.691406 44.152344 65.367188 42.847656 66.035156 C 42.570312 66.175781 42.289062 66.320312 42.011719 66.464844 C 41.597656 66.683594 41.183594 66.894531 40.769531 67.105469 C 40.644531 67.171875 40.519531 67.238281 40.394531 67.304688 C 39.871094 67.566406 39.480469 67.726562 38.894531 67.699219 C 38.25 67.46875 37.652344 67.1875 37.039062 66.886719 C 36.910156 66.820312 36.78125 66.757812 36.644531 66.691406 C 36.363281 66.550781 36.085938 66.414062 35.804688 66.273438 C 35.054688 65.898438 34.300781 65.53125 33.546875 65.160156 C 33.394531 65.085938 33.242188 65.011719 33.085938 64.933594 C 31.714844 64.261719 30.332031 63.613281 28.945312 62.972656 C 25.773438 61.503906 22.636719 59.964844 19.496094 58.421875 C 19.496094 58.289062 19.496094 58.15625 19.496094 58.019531 Z M 19.496094 58.019531 "/>
<path style=" stroke:none;fill-rule:nonzero;fill:rgb(91.764706%,86.666667%,55.686277%);fill-opacity:1;" d="M 35.753906 21.390625 C 35.960938 21.386719 36.167969 21.386719 36.378906 21.382812 C 36.984375 21.429688 36.984375 21.429688 37.988281 21.832031 C 37.988281 23.566406 37.988281 25.300781 37.988281 27.089844 C 37.464844 27.078125 36.9375 27.0625 36.394531 27.050781 C 34.332031 27.035156 32.988281 27.414062 31.355469 28.707031 C 30.683594 28.027344 30.738281 27.125 30.691406 26.203125 C 30.707031 24.816406 31.414062 23.625 32.363281 22.640625 C 33.480469 21.835938 34.355469 21.398438 35.753906 21.390625 Z M 35.753906 21.390625 "/>
<path style=" stroke:none;fill-rule:nonzero;fill:rgb(93.725491%,89.411765%,58.039218%);fill-opacity:1;" d="M 39.398438 32.546875 C 39.957031 32.636719 40.464844 32.769531 41.003906 32.953125 C 41.332031 32.96875 41.660156 32.972656 41.988281 32.972656 C 42.175781 32.96875 42.363281 32.96875 42.558594 32.96875 C 42.753906 32.96875 42.949219 32.964844 43.152344 32.964844 C 43.453125 32.960938 43.453125 32.960938 43.753906 32.960938 C 44.246094 32.957031 44.734375 32.957031 45.226562 32.953125 C 45.28125 33.746094 45.332031 34.542969 45.375 35.339844 C 45.394531 35.566406 45.410156 35.792969 45.425781 36.023438 C 45.4375 36.242188 45.449219 36.460938 45.460938 36.683594 C 45.472656 36.882812 45.488281 37.082031 45.5 37.289062 C 45.425781 37.804688 45.425781 37.804688 45.0625 38.164062 C 43.921875 38.804688 42.675781 38.746094 41.40625 38.613281 C 40.628906 38.332031 39.789062 37.996094 39.195312 37.398438 C 39.175781 37.054688 39.167969 36.710938 39.167969 36.371094 C 39.167969 36.058594 39.167969 36.058594 39.167969 35.738281 C 39.167969 35.519531 39.171875 35.300781 39.171875 35.074219 C 39.171875 34.855469 39.167969 34.636719 39.167969 34.410156 C 39.167969 34.203125 39.167969 33.992188 39.167969 33.777344 C 39.167969 33.585938 39.167969 33.394531 39.171875 33.195312 C 39.195312 32.75 39.195312 32.75 39.398438 32.546875 Z M 39.398438 32.546875 "/>
<path style=" stroke:none;fill-rule:nonzero;fill:rgb(72.941178%,60.392159%,34.509805%);fill-opacity:1;" d="M 50.855469 43.664062 C 51.386719 43.664062 51.914062 43.664062 52.460938 43.664062 C 52.660156 44.601562 52.859375 45.535156 53.066406 46.496094 C 53.199219 45.5625 53.332031 44.628906 53.46875 43.664062 C 53.996094 43.664062 54.527344 43.664062 55.074219 43.664062 C 55.074219 45.800781 55.074219 47.933594 55.074219 50.136719 C 54.808594 50.136719 54.542969 50.136719 54.269531 50.136719 C 54.171875 48.132812 54.171875 48.132812 54.070312 46.089844 C 53.945312 47.195312 53.945312 47.195312 53.824219 48.300781 C 53.808594 48.4375 53.792969 48.574219 53.777344 48.71875 C 53.761719 48.859375 53.746094 49 53.726562 49.144531 C 53.667969 49.527344 53.667969 49.527344 53.46875 50.136719 C 53.136719 50.136719 52.804688 50.136719 52.460938 50.136719 C 52.328125 49.335938 52.195312 48.535156 52.058594 47.707031 C 51.992188 48.574219 51.925781 49.445312 51.859375 50.335938 C 51.527344 50.335938 51.195312 50.335938 50.855469 50.335938 C 50.855469 48.136719 50.855469 45.933594 50.855469 43.664062 Z M 50.855469 43.664062 "/>
<path style=" stroke:none;fill-rule:nonzero;fill:rgb(81.176472%,71.372551%,43.529412%);fill-opacity:1;" d="M 33.96875 28.503906 C 33.96875 28.703125 33.96875 28.90625 33.96875 29.109375 C 33.835938 29.109375 33.703125 29.109375 33.566406 29.109375 C 33.566406 32.046875 33.566406 34.980469 33.566406 38.003906 C 32.355469 37.394531 31.644531 36.542969 30.953125 35.378906 C 30.507812 33.964844 30.550781 32.398438 31.167969 31.054688 C 31.84375 29.851562 32.734375 29.089844 33.96875 28.503906 Z M 33.96875 28.503906 "/>
<path style=" stroke:none;fill-rule:nonzero;fill:rgb(78.039217%,67.450982%,40.392157%);fill-opacity:1;" d="M 33.96875 21.628906 C 34.101562 21.699219 34.234375 21.765625 34.371094 21.832031 C 34.304688 23.5 34.238281 25.167969 34.171875 26.886719 C 34.304688 26.953125 34.4375 27.019531 34.574219 27.089844 C 34.457031 27.121094 34.34375 27.152344 34.226562 27.1875 C 33.09375 27.53125 32.285156 27.972656 31.355469 28.707031 C 30.683594 28.027344 30.738281 27.125 30.691406 26.203125 C 30.707031 24.816406 31.414062 23.625 32.363281 22.640625 C 32.875 22.261719 33.386719 21.894531 33.96875 21.628906 Z M 33.96875 21.628906 "/>
<path style=" stroke:none;fill-rule:nonzero;fill:rgb(56.862748%,38.431373%,16.862746%);fill-opacity:1;" d="M 62.3125 43.664062 C 62.976562 43.664062 63.636719 43.664062 64.320312 43.664062 C 64.925781 44.273438 64.925781 44.273438 64.996094 44.675781 C 64.996094 44.824219 64.992188 44.972656 64.992188 45.128906 C 64.988281 45.292969 64.988281 45.460938 64.988281 45.632812 C 64.984375 45.804688 64.980469 45.976562 64.976562 46.15625 C 64.972656 46.324219 64.972656 46.496094 64.972656 46.671875 C 64.960938 47.578125 64.882812 48.429688 64.722656 49.324219 C 64.796875 49.886719 64.796875 49.886719 64.925781 50.335938 C 64.59375 50.335938 64.261719 50.335938 63.917969 50.335938 C 63.785156 49.9375 63.652344 49.535156 63.519531 49.125 C 63.453125 49.523438 63.386719 49.925781 63.316406 50.335938 C 62.984375 50.335938 62.652344 50.335938 62.3125 50.335938 C 62.3125 48.136719 62.3125 45.933594 62.3125 43.664062 Z M 62.3125 43.664062 "/>
<path style=" stroke:none;fill-rule:nonzero;fill:rgb(64.705884%,49.411765%,26.274511%);fill-opacity:1;" d="M 55.878906 43.664062 C 57.425781 43.632812 57.425781 43.632812 57.988281 43.945312 C 58.398438 44.664062 58.34375 45.246094 58.300781 46.0625 C 58.296875 46.277344 58.296875 46.277344 58.292969 46.496094 C 58.359375 46.5625 58.425781 46.628906 58.492188 46.699219 C 58.527344 47.15625 58.546875 47.617188 58.554688 48.074219 C 58.5625 48.328125 58.570312 48.578125 58.578125 48.835938 C 58.492188 49.527344 58.492188 49.527344 58.140625 50.019531 C 57.417969 50.527344 56.941406 50.40625 56.082031 50.335938 C 55.878906 50.136719 55.878906 50.136719 55.855469 49.519531 C 55.855469 49.246094 55.859375 48.972656 55.859375 48.699219 C 55.859375 48.554688 55.859375 48.414062 55.859375 48.265625 C 55.863281 47.804688 55.863281 47.347656 55.867188 46.886719 C 55.867188 46.578125 55.867188 46.265625 55.871094 45.957031 C 55.871094 45.191406 55.875 44.429688 55.878906 43.664062 Z M 55.878906 43.664062 "/>
<path style=" stroke:none;fill-rule:nonzero;fill:rgb(70.19608%,56.470591%,30.980393%);fill-opacity:1;" d="M 37.988281 22.035156 C 39.457031 22.625 40.144531 23.25 40.8125 24.675781 C 41.152344 25.726562 41.179688 26.808594 41.003906 27.898438 C 40.695312 28.378906 40.695312 28.378906 40.402344 28.707031 C 40.214844 28.578125 40.214844 28.578125 40.027344 28.449219 C 39.785156 28.28125 39.785156 28.28125 39.535156 28.113281 C 39.375 28.003906 39.214844 27.890625 39.046875 27.777344 C 38.585938 27.464844 38.585938 27.464844 37.988281 27.292969 C 37.988281 25.554688 37.988281 23.820312 37.988281 22.035156 Z M 37.988281 22.035156 "/>
<path style=" stroke:none;fill-rule:nonzero;fill:rgb(83.529413%,74.901962%,46.27451%);fill-opacity:1;" d="M 44.625 21.832031 C 45.949219 22.316406 45.949219 22.316406 46.433594 22.84375 C 46.523438 23.421875 46.5625 23.917969 46.566406 24.496094 C 46.570312 24.660156 46.574219 24.820312 46.574219 24.988281 C 46.578125 25.332031 46.582031 25.675781 46.582031 26.019531 C 46.582031 26.542969 46.597656 27.0625 46.613281 27.585938 C 46.644531 30.03125 46.644531 30.03125 46.0625 30.828125 C 45.660156 31.136719 45.296875 31.355469 44.824219 31.535156 C 44.691406 31.46875 44.558594 31.402344 44.421875 31.335938 C 44.488281 31.132812 44.554688 30.933594 44.625 30.726562 C 44.640625 30.433594 44.648438 30.136719 44.644531 29.84375 C 44.644531 29.664062 44.644531 29.484375 44.644531 29.304688 C 44.644531 29.113281 44.644531 28.921875 44.644531 28.722656 C 44.640625 28.527344 44.640625 28.328125 44.640625 28.128906 C 44.640625 27.5 44.636719 26.871094 44.636719 26.242188 C 44.632812 25.816406 44.632812 25.390625 44.632812 24.964844 C 44.628906 23.921875 44.628906 22.878906 44.625 21.832031 Z M 44.625 21.832031 "/>
<path style=" stroke:none;fill-rule:nonzero;fill:rgb(82.745099%,74.117649%,45.882353%);fill-opacity:1;" d="M 31.558594 43.664062 C 33.164062 43.664062 33.164062 43.664062 33.660156 43.957031 C 34.121094 44.726562 34.085938 45.414062 34.070312 46.292969 C 34.074219 46.457031 34.078125 46.621094 34.078125 46.789062 C 34.074219 47.558594 34.058594 47.984375 33.613281 48.632812 C 33.164062 48.921875 33.164062 48.921875 32.363281 48.921875 C 32.363281 49.390625 32.363281 49.855469 32.363281 50.335938 C 32.097656 50.335938 31.832031 50.335938 31.558594 50.335938 C 31.558594 48.136719 31.558594 45.933594 31.558594 43.664062 Z M 31.558594 43.664062 "/>
<path style=" stroke:none;fill-rule:nonzero;fill:rgb(61.176473%,44.313726%,21.568628%);fill-opacity:1;" d="M 16.882812 43.664062 C 17.214844 43.664062 17.546875 43.664062 17.890625 43.664062 C 17.890625 45.535156 17.890625 47.402344 17.890625 49.324219 C 18.15625 49.324219 18.421875 49.324219 18.695312 49.324219 C 18.695312 47.457031 18.695312 45.589844 18.695312 43.664062 C 19.023438 43.664062 19.355469 43.664062 19.699219 43.664062 C 19.710938 44.558594 19.71875 45.453125 19.722656 46.34375 C 19.726562 46.597656 19.730469 46.851562 19.734375 47.113281 C 19.734375 47.355469 19.738281 47.601562 19.738281 47.851562 C 19.738281 48.074219 19.742188 48.300781 19.742188 48.53125 C 19.699219 49.117188 19.617188 49.445312 19.296875 49.933594 C 18.734375 50.214844 18.3125 50.1875 17.6875 50.136719 C 17.277344 49.824219 17.113281 49.585938 16.882812 49.125 C 16.867188 48.714844 16.863281 48.300781 16.863281 47.890625 C 16.867188 47.644531 16.867188 47.402344 16.867188 47.148438 C 16.867188 46.890625 16.871094 46.632812 16.871094 46.371094 C 16.871094 46.109375 16.875 45.851562 16.875 45.585938 C 16.878906 44.945312 16.878906 44.304688 16.882812 43.664062 Z M 16.882812 43.664062 "/>
<path style=" stroke:none;fill-rule:nonzero;fill:rgb(60.000002%,41.960785%,19.607843%);fill-opacity:1;" d="M 47.234375 31.335938 C 47.367188 31.402344 47.5 31.46875 47.636719 31.535156 C 48.066406 32.832031 48.023438 34.304688 47.5 35.566406 C 47 36.550781 46.339844 37.191406 45.425781 37.804688 C 45.226562 37.601562 45.226562 37.601562 45.203125 37.152344 C 45.203125 36.957031 45.207031 36.765625 45.207031 36.5625 C 45.207031 36.355469 45.207031 36.144531 45.207031 35.929688 C 45.210938 35.710938 45.210938 35.492188 45.214844 35.261719 C 45.214844 35.042969 45.214844 34.820312 45.214844 34.59375 C 45.21875 34.046875 45.222656 33.5 45.226562 32.953125 C 44.828125 33.019531 44.429688 33.085938 44.019531 33.152344 C 44.707031 32.695312 45.417969 32.347656 46.15625 31.984375 C 46.667969 31.734375 46.667969 31.734375 47.234375 31.335938 Z M 47.234375 31.335938 "/>
<path style=" stroke:none;fill-rule:nonzero;fill:rgb(77.254903%,66.666669%,40.000001%);fill-opacity:1;" d="M 47.839844 43.664062 C 48.238281 43.664062 48.636719 43.664062 49.046875 43.664062 C 49.191406 44.453125 49.332031 45.242188 49.476562 46.027344 C 49.546875 46.425781 49.621094 46.828125 49.691406 47.226562 C 49.738281 47.476562 49.785156 47.730469 49.832031 47.988281 C 49.871094 48.222656 49.914062 48.453125 49.957031 48.691406 C 50.039062 49.253906 50.070312 49.769531 50.050781 50.335938 C 49.785156 50.335938 49.519531 50.335938 49.246094 50.335938 C 49.046875 49.519531 49.027344 48.753906 49.046875 47.910156 C 48.714844 47.976562 48.382812 48.042969 48.039062 48.113281 C 47.972656 48.847656 47.90625 49.582031 47.839844 50.335938 C 47.507812 50.335938 47.175781 50.335938 46.835938 50.335938 C 46.972656 48.085938 47.140625 45.820312 47.839844 43.664062 Z M 47.839844 43.664062 "/>
<path style=" stroke:none;fill-rule:nonzero;fill:rgb(78.039217%,67.450982%,40.392157%);fill-opacity:1;" d="M 28.140625 43.664062 C 28.605469 43.664062 29.070312 43.664062 29.546875 43.664062 C 29.691406 44.484375 29.835938 45.304688 29.976562 46.125 C 30.027344 46.40625 30.074219 46.683594 30.125 46.960938 C 30.195312 47.363281 30.261719 47.765625 30.332031 48.167969 C 30.394531 48.527344 30.394531 48.527344 30.460938 48.898438 C 30.554688 49.527344 30.554688 49.527344 30.554688 50.335938 C 30.222656 50.269531 29.890625 50.203125 29.546875 50.136719 C 29.480469 49.402344 29.414062 48.667969 29.347656 47.910156 C 29.015625 47.910156 28.683594 47.910156 28.339844 47.910156 C 28.34375 48.039062 28.347656 48.164062 28.347656 48.292969 C 28.351562 48.542969 28.351562 48.542969 28.355469 48.796875 C 28.355469 48.960938 28.359375 49.125 28.363281 49.292969 C 28.339844 49.730469 28.339844 49.730469 28.140625 50.136719 C 27.875 50.136719 27.609375 50.136719 27.335938 50.136719 C 27.582031 47.976562 27.847656 45.820312 28.140625 43.664062 Z M 28.140625 43.664062 "/>
<path style=" stroke:none;fill-rule:nonzero;fill:rgb(57.254905%,38.431373%,16.470589%);fill-opacity:1;" d="M 14.761719 43.601562 C 15.476562 43.664062 15.476562 43.664062 15.867188 43.90625 C 16.144531 44.386719 16.125 44.738281 16.082031 45.28125 C 15.75 45.214844 15.417969 45.148438 15.074219 45.082031 C 15.074219 44.878906 15.074219 44.679688 15.074219 44.472656 C 14.875 44.472656 14.675781 44.472656 14.472656 44.472656 C 14.472656 46.074219 14.472656 47.675781 14.472656 49.324219 C 14.671875 49.324219 14.871094 49.324219 15.074219 49.324219 C 15.074219 48.457031 15.074219 47.589844 15.074219 46.699219 C 14.941406 46.699219 14.808594 46.699219 14.671875 46.699219 C 14.671875 46.429688 14.671875 46.164062 14.671875 45.890625 C 15.136719 45.890625 15.601562 45.890625 16.082031 45.890625 C 16.089844 46.484375 16.097656 47.078125 16.105469 47.671875 C 16.109375 47.921875 16.109375 47.921875 16.117188 48.179688 C 16.117188 48.34375 16.117188 48.507812 16.121094 48.671875 C 16.121094 48.824219 16.125 48.972656 16.125 49.125 C 16.082031 49.527344 16.082031 49.527344 15.679688 50.136719 C 14.988281 50.3125 14.988281 50.3125 14.269531 50.335938 C 13.929688 50.117188 13.929688 50.117188 13.667969 49.730469 C 13.59375 49.148438 13.59375 49.148438 13.59375 48.445312 C 13.59375 48.195312 13.59375 47.945312 13.597656 47.683594 C 13.597656 47.421875 13.601562 47.160156 13.605469 46.886719 C 13.605469 46.625 13.605469 46.359375 13.605469 46.089844 C 13.617188 43.707031 13.617188 43.707031 14.761719 43.601562 Z M 14.761719 43.601562 "/>
<path style=" stroke:none;fill-rule:nonzero;fill:rgb(68.627453%,54.11765%,29.019609%);fill-opacity:1;" d="M 21.507812 43.664062 C 21.90625 43.664062 22.304688 43.664062 22.714844 43.664062 C 23 44.777344 23.242188 45.882812 23.441406 47.015625 C 23.46875 47.160156 23.496094 47.304688 23.523438 47.453125 C 23.683594 48.363281 23.746094 49.210938 23.71875 50.136719 C 23.453125 50.136719 23.1875 50.136719 22.914062 50.136719 C 22.847656 49.402344 22.78125 48.667969 22.714844 47.910156 C 22.382812 47.910156 22.050781 47.910156 21.707031 47.910156 C 21.640625 48.644531 21.574219 49.378906 21.507812 50.136719 C 21.242188 50.136719 20.976562 50.136719 20.703125 50.136719 C 20.804688 47.941406 21.121094 45.824219 21.507812 43.664062 Z M 21.507812 43.664062 "/>
<path style=" stroke:none;fill-rule:nonzero;fill:rgb(86.666667%,79.607844%,50.196081%);fill-opacity:1;" d="M 43.617188 43.664062 C 43.882812 43.664062 44.148438 43.664062 44.421875 43.664062 C 44.421875 44.398438 44.421875 45.132812 44.421875 45.890625 C 44.6875 45.890625 44.953125 45.890625 45.226562 45.890625 C 45.226562 45.15625 45.226562 44.421875 45.226562 43.664062 C 45.492188 43.664062 45.757812 43.664062 46.03125 43.664062 C 46.03125 45.800781 46.03125 47.933594 46.03125 50.136719 C 45.765625 50.136719 45.5 50.136719 45.226562 50.136719 C 45.226562 49 45.226562 47.867188 45.226562 46.699219 C 44.960938 46.699219 44.695312 46.699219 44.421875 46.699219 C 44.421875 47.898438 44.421875 49.101562 44.421875 50.335938 C 44.15625 50.335938 43.890625 50.335938 43.617188 50.335938 C 43.617188 48.136719 43.617188 45.933594 43.617188 43.664062 Z M 43.617188 43.664062 "/>
<path style=" stroke:none;fill-rule:nonzero;fill:rgb(71.372551%,57.647061%,32.156864%);fill-opacity:1;" d="M 39.398438 32.546875 C 40.117188 32.648438 40.738281 32.875 41.40625 33.152344 C 41.414062 33.800781 41.417969 34.449219 41.417969 35.097656 C 41.421875 35.28125 41.421875 35.464844 41.425781 35.652344 C 41.429688 36.597656 41.402344 37.480469 41.207031 38.410156 C 40.425781 38.175781 39.789062 37.972656 39.195312 37.398438 C 39.101562 36.90625 39.101562 36.90625 39.109375 36.328125 C 39.113281 36.121094 39.113281 35.914062 39.117188 35.703125 C 39.121094 35.488281 39.128906 35.269531 39.132812 35.050781 C 39.136719 34.832031 39.136719 34.613281 39.140625 34.390625 C 39.164062 32.785156 39.164062 32.785156 39.398438 32.546875 Z M 39.398438 32.546875 "/>
<path style=" stroke:none;fill-rule:nonzero;fill:rgb(77.64706%,66.666669%,39.607844%);fill-opacity:1;" d="M 42.550781 21.414062 C 42.75 21.417969 42.949219 21.417969 43.15625 21.421875 C 43.382812 21.425781 43.382812 21.425781 43.617188 21.429688 C 43.351562 21.496094 43.085938 21.5625 42.8125 21.628906 C 42.8125 24.964844 42.8125 28.300781 42.8125 31.738281 C 41.230469 31.738281 41.230469 31.738281 40.601562 31.535156 C 40.871094 30.808594 41.207031 30.179688 41.609375 29.515625 C 42.472656 28.023438 42.417969 26.390625 42.109375 24.71875 C 41.796875 23.675781 41.269531 22.886719 40.601562 22.035156 C 40.992188 21.253906 41.78125 21.40625 42.550781 21.414062 Z M 42.550781 21.414062 "/>
<path style=" stroke:none;fill-rule:nonzero;fill:rgb(61.176473%,44.313726%,21.960784%);fill-opacity:1;" d="M 59.296875 43.664062 C 60.027344 43.664062 60.753906 43.664062 61.507812 43.664062 C 61.507812 44 61.507812 44.332031 61.507812 44.675781 C 61.109375 44.675781 60.710938 44.675781 60.300781 44.675781 C 60.300781 45.078125 60.300781 45.476562 60.300781 45.890625 C 60.699219 45.890625 61.097656 45.890625 61.507812 45.890625 C 61.507812 46.222656 61.507812 46.554688 61.507812 46.898438 C 61.109375 46.898438 60.710938 46.898438 60.300781 46.898438 C 60.300781 47.699219 60.300781 48.5 60.300781 49.324219 C 60.699219 49.324219 61.097656 49.324219 61.507812 49.324219 C 61.507812 49.660156 61.507812 49.992188 61.507812 50.335938 C 60.777344 50.335938 60.046875 50.335938 59.296875 50.335938 C 59.296875 48.136719 59.296875 45.933594 59.296875 43.664062 Z M 59.296875 43.664062 "/>
<path style=" stroke:none;fill-rule:nonzero;fill:rgb(84.313726%,76.862746%,48.627451%);fill-opacity:1;" d="M 34.773438 43.664062 C 35.503906 43.664062 36.234375 43.664062 36.984375 43.664062 C 36.984375 44 36.984375 44.332031 36.984375 44.675781 C 36.585938 44.675781 36.1875 44.675781 35.777344 44.675781 C 35.777344 45.078125 35.777344 45.476562 35.777344 45.890625 C 36.175781 45.890625 36.574219 45.890625 36.984375 45.890625 C 36.984375 46.222656 36.984375 46.554688 36.984375 46.898438 C 36.585938 46.898438 36.1875 46.898438 35.777344 46.898438 C 35.777344 47.699219 35.777344 48.5 35.777344 49.324219 C 36.175781 49.324219 36.574219 49.324219 36.984375 49.324219 C 36.984375 49.660156 36.984375 49.992188 36.984375 50.335938 C 36.253906 50.335938 35.527344 50.335938 34.773438 50.335938 C 34.773438 48.136719 34.773438 45.933594 34.773438 43.664062 Z M 34.773438 43.664062 "/>
<path style=" stroke:none;fill-rule:nonzero;fill:rgb(77.64706%,66.666669%,39.607844%);fill-opacity:1;" d="M 35.777344 28.300781 C 37.363281 28.300781 37.363281 28.300781 37.988281 28.707031 C 37.867188 28.902344 37.867188 28.902344 37.742188 29.105469 C 37.578125 29.371094 37.578125 29.371094 37.410156 29.640625 C 37.304688 29.816406 37.199219 29.988281 37.085938 30.167969 C 36.246094 31.726562 36.152344 33.4375 36.382812 35.175781 C 36.625 35.921875 36.957031 36.542969 37.386719 37.195312 C 37.566406 37.507812 37.566406 37.507812 37.75 37.828125 C 37.828125 37.953125 37.910156 38.078125 37.988281 38.207031 C 37.179688 38.730469 36.882812 38.613281 35.777344 38.613281 C 35.777344 35.210938 35.777344 31.808594 35.777344 28.300781 Z M 35.777344 28.300781 "/>
<path style=" stroke:none;fill-rule:nonzero;fill:rgb(92.941177%,88.235295%,57.254905%);fill-opacity:1;" d="M 44.019531 21.832031 C 44.21875 21.832031 44.417969 21.832031 44.625 21.832031 C 44.851562 22.289062 44.851562 22.542969 44.851562 23.050781 C 44.855469 23.300781 44.855469 23.300781 44.855469 23.558594 C 44.859375 23.738281 44.859375 23.917969 44.859375 24.105469 C 44.859375 24.292969 44.859375 24.476562 44.859375 24.667969 C 44.859375 25.0625 44.863281 25.457031 44.863281 25.851562 C 44.863281 26.453125 44.867188 27.054688 44.871094 27.660156 C 44.871094 28.039062 44.871094 28.421875 44.871094 28.804688 C 44.871094 28.984375 44.875 29.167969 44.875 29.351562 C 44.875 29.519531 44.875 29.6875 44.871094 29.863281 C 44.875 30.011719 44.875 30.160156 44.875 30.3125 C 44.816406 30.789062 44.65625 31.121094 44.421875 31.535156 C 44.222656 31.535156 44.023438 31.535156 43.820312 31.535156 C 43.8125 30.1875 43.808594 28.835938 43.808594 27.488281 C 43.808594 27.027344 43.804688 26.570312 43.804688 26.109375 C 43.800781 25.449219 43.800781 24.792969 43.800781 24.132812 C 43.796875 23.925781 43.796875 23.71875 43.796875 23.507812 C 43.796875 23.316406 43.796875 23.125 43.796875 22.929688 C 43.796875 22.761719 43.796875 22.59375 43.796875 22.421875 C 43.820312 22.035156 43.820312 22.035156 44.019531 21.832031 Z M 44.019531 21.832031 "/>
<path style=" stroke:none;fill-rule:nonzero;fill:rgb(69.803923%,56.078434%,30.588236%);fill-opacity:1;" d="M 32.5625 29.3125 C 32.765625 29.71875 32.765625 29.71875 32.675781 30.148438 C 32.535156 30.867188 32.539062 31.558594 32.542969 32.285156 C 32.542969 32.503906 32.542969 32.503906 32.542969 32.730469 C 32.546875 33.195312 32.546875 33.660156 32.550781 34.125 C 32.550781 34.441406 32.550781 34.761719 32.554688 35.078125 C 32.554688 35.851562 32.558594 36.625 32.5625 37.398438 C 31.292969 36.148438 30.738281 35.21875 30.679688 33.429688 C 30.691406 31.886719 31.214844 30.742188 32.222656 29.589844 C 32.335938 29.5 32.449219 29.40625 32.5625 29.3125 Z M 32.5625 29.3125 "/>
<path style=" stroke:none;fill-rule:nonzero;fill:rgb(83.529413%,75.294119%,46.666667%);fill-opacity:1;" d="M 45.226562 32.953125 C 45.28125 33.746094 45.332031 34.542969 45.375 35.339844 C 45.394531 35.566406 45.410156 35.792969 45.425781 36.023438 C 45.4375 36.242188 45.449219 36.460938 45.460938 36.683594 C 45.472656 36.882812 45.488281 37.082031 45.5 37.289062 C 45.425781 37.804688 45.425781 37.804688 45.0625 38.167969 C 44.519531 38.464844 44.027344 38.542969 43.417969 38.613281 C 43.429688 38.398438 43.445312 38.1875 43.460938 37.96875 C 43.558594 36.496094 43.644531 35.035156 43.617188 33.558594 C 43.019531 33.492188 42.425781 33.425781 41.808594 33.355469 C 41.808594 33.289062 41.808594 33.222656 41.808594 33.152344 C 42.304688 33.121094 42.796875 33.085938 43.292969 33.050781 C 43.433594 33.042969 43.574219 33.035156 43.71875 33.023438 C 44.777344 32.953125 44.777344 32.953125 45.226562 32.953125 Z M 45.226562 32.953125 "/>
<path style=" stroke:none;fill-rule:nonzero;fill:rgb(84.705883%,76.862746%,47.843137%);fill-opacity:1;" d="M 34.574219 28.300781 C 34.972656 28.300781 35.367188 28.300781 35.777344 28.300781 C 35.777344 31.703125 35.777344 35.105469 35.777344 38.613281 C 35.382812 38.613281 34.984375 38.613281 34.574219 38.613281 C 34.773438 38.511719 34.773438 38.511719 34.976562 38.410156 C 34.976562 35.140625 34.976562 31.871094 34.976562 28.503906 C 34.84375 28.4375 34.710938 28.371094 34.574219 28.300781 Z M 34.574219 28.300781 "/>
<path style=" stroke:none;fill-rule:nonzero;fill:rgb(91.37255%,85.882354%,55.686277%);fill-opacity:1;" d="M 41.445312 43.613281 C 41.632812 43.632812 41.816406 43.648438 42.011719 43.664062 C 42.011719 43.800781 42.011719 43.933594 42.011719 44.070312 C 42.210938 44.136719 42.40625 44.203125 42.613281 44.273438 C 42.613281 44.605469 42.613281 44.9375 42.613281 45.28125 C 42.347656 45.28125 42.082031 45.28125 41.808594 45.28125 C 41.808594 45.082031 41.808594 44.882812 41.808594 44.675781 C 41.542969 44.675781 41.277344 44.675781 41.003906 44.675781 C 41.070312 46.144531 41.136719 47.613281 41.207031 49.125 C 41.339844 49.125 41.472656 49.125 41.609375 49.125 C 41.675781 48.925781 41.742188 48.722656 41.808594 48.515625 C 42.074219 48.515625 42.339844 48.515625 42.613281 48.515625 C 42.65625 49.070312 42.683594 49.414062 42.386719 49.894531 C 41.835938 50.246094 41.445312 50.214844 40.804688 50.136719 C 40.46875 49.898438 40.46875 49.898438 40.199219 49.527344 C 40.121094 49.007812 40.121094 49.007812 40.121094 48.390625 C 40.121094 48.167969 40.121094 47.945312 40.117188 47.71875 C 40.121094 47.484375 40.125 47.253906 40.125 47.015625 C 40.125 46.78125 40.121094 46.550781 40.117188 46.3125 C 40.121094 46.089844 40.121094 45.867188 40.121094 45.636719 C 40.121094 45.433594 40.121094 45.230469 40.121094 45.019531 C 40.253906 44.105469 40.511719 43.6875 41.445312 43.613281 Z M 41.445312 43.613281 "/>
<path style=" stroke:none;fill-rule:nonzero;fill:rgb(66.274512%,50.980395%,26.274511%);fill-opacity:1;" d="M 32.363281 22.640625 C 32.429688 22.640625 32.496094 22.640625 32.5625 22.640625 C 32.5625 24.375 32.5625 26.109375 32.5625 27.898438 C 32.097656 28.164062 31.632812 28.429688 31.15625 28.707031 C 30.730469 27.234375 30.421875 25.847656 31.105469 24.410156 C 31.464844 23.769531 31.867188 23.1875 32.363281 22.640625 Z M 32.363281 22.640625 "/>
<path style=" stroke:none;fill-rule:nonzero;fill:rgb(63.921571%,47.450981%,23.529412%);fill-opacity:1;" d="M 37.789062 31.335938 C 38.480469 31.644531 39.019531 32.0625 39.597656 32.546875 C 39.53125 32.613281 39.464844 32.679688 39.398438 32.75 C 39.367188 33.078125 39.347656 33.410156 39.332031 33.742188 C 39.324219 33.941406 39.316406 34.140625 39.308594 34.347656 C 39.300781 34.558594 39.292969 34.769531 39.285156 34.984375 C 39.273438 35.195312 39.265625 35.40625 39.257812 35.625 C 39.234375 36.148438 39.214844 36.671875 39.195312 37.195312 C 38.21875 36.296875 37.640625 35.566406 37.523438 34.210938 C 37.527344 33.949219 37.53125 33.6875 37.539062 33.417969 C 37.539062 33.15625 37.542969 32.890625 37.546875 32.621094 C 37.589844 31.941406 37.589844 31.941406 37.789062 31.335938 Z M 37.789062 31.335938 "/>
<path style=" stroke:none;fill-rule:nonzero;fill:rgb(68.235296%,53.333336%,28.627452%);fill-opacity:1;" d="M 46.433594 23.246094 C 47.574219 24.398438 47.894531 24.9375 47.925781 26.519531 C 47.910156 27.835938 47.589844 28.84375 46.835938 29.917969 C 46.636719 30.019531 46.636719 30.019531 46.433594 30.121094 C 46.433594 27.851562 46.433594 25.585938 46.433594 23.246094 Z M 46.433594 23.246094 "/>
<path style=" stroke:none;fill-rule:nonzero;fill:rgb(74.509805%,62.7451%,36.078432%);fill-opacity:1;" d="M 23.917969 43.664062 C 24.914062 43.664062 25.910156 43.664062 26.933594 43.664062 C 26.933594 43.933594 26.933594 44.199219 26.933594 44.472656 C 26.601562 44.472656 26.269531 44.472656 25.929688 44.472656 C 25.929688 46.34375 25.929688 48.210938 25.929688 50.136719 C 25.664062 50.136719 25.398438 50.136719 25.125 50.136719 C 25.125 48.265625 25.125 46.398438 25.125 44.472656 C 24.726562 44.472656 24.328125 44.472656 23.917969 44.472656 C 23.917969 44.207031 23.917969 43.941406 23.917969 43.664062 Z M 23.917969 43.664062 "/>
<path style=" stroke:none;fill-rule:nonzero;fill:rgb(59.607846%,41.176471%,18.82353%);fill-opacity:1;" d="M 39.597656 23.046875 C 40.964844 24.421875 41.070312 25.402344 41.085938 27.292969 C 41 27.949219 40.839844 28.226562 40.402344 28.707031 C 40.003906 28.4375 39.605469 28.171875 39.195312 27.898438 C 39.328125 27.832031 39.460938 27.765625 39.597656 27.695312 C 39.597656 26.160156 39.597656 24.625 39.597656 23.046875 Z M 39.597656 23.046875 "/>
<path style=" stroke:none;fill-rule:nonzero;fill:rgb(72.156864%,58.823532%,33.333334%);fill-opacity:1;" d="M 46.230469 32.34375 C 46.253906 33.140625 46.269531 33.9375 46.28125 34.734375 C 46.292969 35.074219 46.292969 35.074219 46.300781 35.417969 C 46.304688 35.636719 46.308594 35.851562 46.308594 36.078125 C 46.3125 36.277344 46.316406 36.476562 46.324219 36.683594 C 46.230469 37.195312 46.230469 37.195312 45.824219 37.570312 C 45.691406 37.648438 45.5625 37.722656 45.425781 37.804688 C 45.226562 37.601562 45.226562 37.601562 45.203125 37.152344 C 45.203125 36.957031 45.207031 36.765625 45.207031 36.5625 C 45.207031 36.355469 45.207031 36.144531 45.207031 35.929688 C 45.210938 35.710938 45.210938 35.492188 45.214844 35.261719 C 45.214844 35.042969 45.214844 34.820312 45.214844 34.59375 C 45.21875 34.046875 45.222656 33.5 45.226562 32.953125 C 44.828125 33.019531 44.429688 33.085938 44.019531 33.152344 C 44.757812 32.660156 45.335938 32.34375 46.230469 32.34375 Z M 46.230469 32.34375 "/>
<path style=" stroke:none;fill-rule:nonzero;fill:rgb(83.529413%,74.901962%,46.27451%);fill-opacity:1;" d="M 36.984375 21.628906 C 37.480469 21.730469 37.480469 21.730469 37.988281 21.832031 C 37.988281 23.566406 37.988281 25.300781 37.988281 27.089844 C 37.660156 27.023438 37.328125 26.957031 36.984375 26.886719 C 36.984375 25.152344 36.984375 23.417969 36.984375 21.628906 Z M 36.984375 21.628906 "/>
<path style=" stroke:none;fill-rule:nonzero;fill:rgb(80.000001%,70.19608%,42.352942%);fill-opacity:1;" d="M 40.402344 32.953125 C 40.898438 33.050781 40.898438 33.050781 41.40625 33.152344 C 41.414062 33.800781 41.417969 34.449219 41.417969 35.097656 C 41.421875 35.28125 41.421875 35.464844 41.425781 35.652344 C 41.429688 36.597656 41.402344 37.480469 41.207031 38.410156 C 40.941406 38.34375 40.675781 38.277344 40.402344 38.207031 C 40.402344 36.472656 40.402344 34.738281 40.402344 32.953125 Z M 40.402344 32.953125 "/>
<path style=" stroke:none;fill-rule:nonzero;fill:rgb(74.117649%,62.352943%,35.686275%);fill-opacity:1;" d="M 45.628906 22.4375 C 46.027344 22.640625 46.027344 22.640625 46.433594 22.84375 C 46.445312 23.902344 46.457031 24.960938 46.464844 26.015625 C 46.46875 26.378906 46.472656 26.738281 46.476562 27.097656 C 46.484375 27.613281 46.488281 28.132812 46.492188 28.648438 C 46.496094 28.808594 46.496094 28.972656 46.5 29.136719 C 46.5 29.589844 46.5 29.589844 46.433594 30.324219 C 46.234375 30.457031 46.035156 30.589844 45.828125 30.726562 C 45.761719 27.992188 45.695312 25.257812 45.628906 22.4375 Z M 45.628906 22.4375 "/>
<path style=" stroke:none;fill-rule:nonzero;fill:rgb(76.862746%,65.490198%,38.431373%);fill-opacity:1;" d="M 37.988281 22.035156 C 38.1875 22.101562 38.386719 22.167969 38.59375 22.238281 C 38.605469 22.40625 38.617188 22.574219 38.628906 22.746094 C 38.648438 22.964844 38.664062 23.1875 38.679688 23.414062 C 38.707031 23.738281 38.707031 23.738281 38.730469 24.074219 C 38.773438 24.675781 38.773438 24.675781 38.996094 25.269531 C 38.929688 25.605469 38.859375 25.945312 38.792969 26.28125 C 38.859375 26.480469 38.925781 26.679688 38.996094 26.886719 C 38.929688 27.019531 38.863281 27.152344 38.792969 27.292969 C 38.527344 27.292969 38.261719 27.292969 37.988281 27.292969 C 37.988281 25.554688 37.988281 23.820312 37.988281 22.035156 Z M 37.988281 22.035156 "/>
<path style=" stroke:none;fill-rule:nonzero;fill:rgb(71.764708%,58.823532%,33.333334%);fill-opacity:1;" d="M 35.980469 32.75 C 36.046875 32.75 36.113281 32.75 36.179688 32.75 C 36.183594 32.902344 36.1875 33.050781 36.191406 33.207031 C 36.261719 34.765625 36.59375 35.863281 37.386719 37.195312 C 37.566406 37.507812 37.566406 37.507812 37.75 37.828125 C 37.828125 37.953125 37.910156 38.078125 37.988281 38.207031 C 37.355469 38.585938 36.914062 38.632812 36.179688 38.613281 C 36.027344 36.652344 35.953125 34.71875 35.980469 32.75 Z M 35.980469 32.75 "/>
<path style=" stroke:none;fill-rule:nonzero;fill:rgb(87.843138%,80.784315%,50.980395%);fill-opacity:1;" d="M 41.40625 33.152344 C 41.605469 33.21875 41.804688 33.285156 42.011719 33.355469 C 42.011719 35.089844 42.011719 36.824219 42.011719 38.613281 C 41.746094 38.546875 41.480469 38.476562 41.207031 38.410156 C 40.980469 37.652344 40.980469 37.652344 41.207031 37.195312 C 41.238281 36.890625 41.257812 36.582031 41.269531 36.273438 C 41.277344 36.089844 41.285156 35.910156 41.296875 35.722656 C 41.308594 35.441406 41.308594 35.441406 41.320312 35.148438 C 41.328125 34.957031 41.335938 34.769531 41.34375 34.570312 C 41.367188 34.097656 41.386719 33.625 41.40625 33.152344 Z M 41.40625 33.152344 "/>
<path style=" stroke:none;fill-rule:nonzero;fill:rgb(56.078434%,38.431373%,19.215687%);fill-opacity:1;" d="M 58.695312 13.542969 C 60.242188 14.054688 61.773438 14.609375 63.304688 15.175781 C 63.550781 15.265625 63.796875 15.355469 64.054688 15.449219 C 64.40625 15.578125 64.40625 15.578125 64.765625 15.710938 C 64.980469 15.789062 65.195312 15.871094 65.414062 15.949219 C 65.929688 16.171875 65.929688 16.171875 66.332031 16.578125 C 64.609375 16.238281 62.960938 15.6875 61.292969 15.136719 C 61.003906 15.039062 60.710938 14.945312 60.417969 14.851562 C 59.707031 14.617188 59 14.382812 58.292969 14.152344 C 58.425781 13.949219 58.558594 13.75 58.695312 13.542969 Z M 58.695312 13.542969 "/>
<path style=" stroke:none;fill-rule:nonzero;fill:rgb(60.784316%,43.921569%,21.568628%);fill-opacity:1;" d="M 21.507812 13.140625 C 21.605469 13.339844 21.605469 13.339844 21.707031 13.542969 C 20.574219 13.925781 19.441406 14.300781 18.304688 14.679688 C 17.921875 14.804688 17.535156 14.933594 17.148438 15.066406 C 16.59375 15.25 16.039062 15.433594 15.484375 15.617188 C 15.3125 15.675781 15.140625 15.734375 14.960938 15.792969 C 14.800781 15.847656 14.640625 15.898438 14.476562 15.953125 C 14.332031 16 14.191406 16.046875 14.046875 16.097656 C 13.667969 16.171875 13.667969 16.171875 13.066406 15.96875 C 14.167969 15.53125 15.273438 15.097656 16.382812 14.664062 C 16.757812 14.515625 17.132812 14.367188 17.507812 14.21875 C 18.050781 14.003906 18.589844 13.792969 19.128906 13.582031 C 19.300781 13.515625 19.46875 13.445312 19.640625 13.378906 C 19.796875 13.316406 19.953125 13.257812 20.117188 13.195312 C 20.253906 13.140625 20.390625 13.085938 20.535156 13.027344 C 20.90625 12.9375 20.90625 12.9375 21.507812 13.140625 Z M 21.507812 13.140625 "/>
<path style=" stroke:none;fill-rule:nonzero;fill:rgb(61.960787%,45.882353%,23.529412%);fill-opacity:1;" d="M 65.527344 54.582031 C 63.007812 55.851562 60.488281 57.117188 57.890625 58.421875 C 57.824219 58.15625 57.757812 57.890625 57.6875 57.613281 C 57.863281 57.539062 58.042969 57.460938 58.222656 57.382812 C 58.882812 57.097656 59.539062 56.8125 60.199219 56.523438 C 60.484375 56.402344 60.765625 56.277344 61.050781 56.15625 C 61.460938 55.976562 61.871094 55.800781 62.28125 55.621094 C 62.40625 55.566406 62.53125 55.511719 62.664062 55.457031 C 63.246094 55.199219 63.8125 54.9375 64.375 54.632812 C 64.925781 54.378906 64.925781 54.378906 65.527344 54.582031 Z M 65.527344 54.582031 "/>
<path style=" stroke:none;fill-rule:nonzero;fill:rgb(60.784316%,43.529412%,20.392157%);fill-opacity:1;" d="M 31.355469 30.726562 C 31.421875 30.726562 31.488281 30.726562 31.558594 30.726562 C 31.558594 32.527344 31.558594 34.332031 31.558594 36.1875 C 30.601562 34.902344 30.632812 33.71875 30.753906 32.144531 C 30.90625 31.613281 31.09375 31.214844 31.355469 30.726562 Z M 31.355469 30.726562 "/>
<path style=" stroke:none;fill-rule:nonzero;fill:rgb(60.000002%,42.352942%,20%);fill-opacity:1;" d="M 47.035156 24.054688 C 47.855469 24.878906 47.875 25.410156 47.890625 26.53125 C 47.882812 27.628906 47.765625 28.359375 47.234375 29.3125 C 47.167969 29.3125 47.105469 29.3125 47.035156 29.3125 C 47.035156 27.578125 47.035156 25.84375 47.035156 24.054688 Z M 47.035156 24.054688 "/>
<path style=" stroke:none;fill-rule:nonzero;fill:rgb(84.313726%,76.078433%,47.450981%);fill-opacity:1;" d="M 34.574219 21.429688 C 35 21.503906 35 21.503906 35.375 21.628906 C 35.179688 21.628906 34.980469 21.628906 34.773438 21.628906 C 34.773438 23.363281 34.773438 25.101562 34.773438 26.886719 C 34.574219 26.886719 34.375 26.886719 34.171875 26.886719 C 34.160156 26.054688 34.152344 25.21875 34.144531 24.386719 C 34.140625 24.148438 34.140625 23.910156 34.136719 23.664062 C 34.132812 23.4375 34.132812 23.210938 34.132812 22.976562 C 34.128906 22.769531 34.128906 22.558594 34.125 22.34375 C 34.171875 21.832031 34.171875 21.832031 34.574219 21.429688 Z M 34.574219 21.429688 "/>
<path style=" stroke:none;fill-rule:nonzero;fill:rgb(90.588236%,85.09804%,54.509807%);fill-opacity:1;" d="M 43.015625 33.355469 C 43.28125 33.421875 43.546875 33.488281 43.820312 33.558594 C 43.824219 34.101562 43.828125 34.644531 43.832031 35.1875 C 43.832031 35.339844 43.835938 35.492188 43.835938 35.648438 C 43.839844 36.589844 43.773438 37.480469 43.617188 38.410156 C 43.417969 38.476562 43.21875 38.542969 43.015625 38.613281 C 43.015625 36.878906 43.015625 35.144531 43.015625 33.355469 Z M 43.015625 33.355469 "/>
<path style=" stroke:none;fill-rule:nonzero;fill:rgb(79.215688%,69.01961%,41.568628%);fill-opacity:1;" d="M 44.824219 32.953125 C 44.957031 32.953125 45.089844 32.953125 45.226562 32.953125 C 45.292969 34.550781 45.359375 36.152344 45.425781 37.804688 C 45.027344 38.003906 45.027344 38.003906 44.625 38.207031 C 44.617188 37.371094 44.613281 36.53125 44.609375 35.691406 C 44.609375 35.453125 44.605469 35.214844 44.605469 34.96875 C 44.605469 34.742188 44.605469 34.511719 44.601562 34.277344 C 44.601562 34.066406 44.601562 33.859375 44.601562 33.640625 C 44.625 33.152344 44.625 33.152344 44.824219 32.953125 Z M 44.824219 32.953125 "/>
<path style=" stroke:none;fill-rule:nonzero;fill:rgb(76.078433%,64.313728%,37.64706%);fill-opacity:1;" d="M 39.800781 32.75 C 39.996094 32.75 40.195312 32.75 40.402344 32.75 C 40.402344 34.484375 40.402344 36.21875 40.402344 38.003906 C 40.269531 38.003906 40.136719 38.003906 40 38.003906 C 39.738281 37.476562 39.777344 37.089844 39.78125 36.5 C 39.78125 36.28125 39.78125 36.066406 39.78125 35.839844 C 39.78125 35.613281 39.785156 35.386719 39.785156 35.148438 C 39.789062 34.921875 39.789062 34.691406 39.789062 34.453125 C 39.792969 33.886719 39.792969 33.316406 39.800781 32.75 Z M 39.800781 32.75 "/>
<path style=" stroke:none;fill-rule:nonzero;fill:rgb(72.549021%,59.607846%,33.725491%);fill-opacity:1;" d="M 32.964844 22.238281 C 33.03125 22.238281 33.097656 22.238281 33.164062 22.238281 C 33.164062 23.972656 33.164062 25.707031 33.164062 27.492188 C 32.96875 27.558594 32.769531 27.625 32.5625 27.695312 C 32.550781 26.863281 32.542969 26.027344 32.539062 25.195312 C 32.535156 24.957031 32.53125 24.71875 32.527344 24.472656 C 32.527344 24.246094 32.523438 24.019531 32.523438 23.785156 C 32.519531 23.578125 32.519531 23.367188 32.515625 23.152344 C 32.5625 22.640625 32.5625 22.640625 32.964844 22.238281 Z M 32.964844 22.238281 "/>
<path style=" stroke:none;fill-rule:nonzero;fill:rgb(64.705884%,48.627451%,24.705882%);fill-opacity:1;" d="M 39.597656 23.046875 C 40.199219 23.652344 40.199219 23.652344 40.269531 24.148438 C 40.265625 24.339844 40.261719 24.53125 40.261719 24.730469 C 40.257812 24.9375 40.257812 25.144531 40.253906 25.359375 C 40.25 25.574219 40.242188 25.792969 40.238281 26.015625 C 40.234375 26.234375 40.234375 26.453125 40.230469 26.679688 C 40.222656 27.21875 40.214844 27.761719 40.199219 28.300781 C 39.703125 28.101562 39.703125 28.101562 39.195312 27.898438 C 39.328125 27.832031 39.460938 27.765625 39.597656 27.695312 C 39.597656 26.160156 39.597656 24.625 39.597656 23.046875 Z M 39.597656 23.046875 "/>
<path style=" stroke:none;fill-rule:nonzero;fill:rgb(59.607846%,41.568628%,18.82353%);fill-opacity:1;" d="M 31.355469 23.855469 C 31.421875 23.855469 31.488281 23.855469 31.558594 23.855469 C 31.625 25.390625 31.691406 26.921875 31.757812 28.503906 C 31.558594 28.570312 31.359375 28.636719 31.15625 28.707031 C 30.640625 26.929688 30.503906 25.53125 31.355469 23.855469 Z M 31.355469 23.855469 "/>
<path style=" stroke:none;fill-rule:nonzero;fill:rgb(65.882355%,50.588238%,26.274511%);fill-opacity:1;" d="M 46.835938 31.941406 C 46.847656 32.628906 46.851562 33.3125 46.859375 34 C 46.863281 34.195312 46.867188 34.386719 46.871094 34.589844 C 46.871094 34.777344 46.871094 34.964844 46.875 35.160156 C 46.875 35.332031 46.878906 35.503906 46.878906 35.679688 C 46.828125 36.25 46.664062 36.679688 46.433594 37.195312 C 46.367188 37.195312 46.300781 37.195312 46.230469 37.195312 C 46.164062 35.527344 46.097656 33.859375 46.03125 32.144531 C 46.433594 31.941406 46.433594 31.941406 46.835938 31.941406 Z M 46.835938 31.941406 "/>
<path style=" stroke:none;fill-rule:nonzero;fill:rgb(71.764708%,58.431375%,32.941177%);fill-opacity:1;" d="M 42.410156 21.429688 C 42.410156 22.695312 42.410156 23.964844 42.410156 25.269531 C 42.011719 24.460938 42.011719 24.460938 41.816406 24.0625 C 41.441406 23.300781 41.054688 22.558594 40.601562 21.832031 C 41.300781 21.417969 41.527344 21.429688 42.410156 21.429688 Z M 42.410156 21.429688 "/>
<path style=" stroke:none;fill-rule:nonzero;fill:rgb(58.823532%,40.784314%,18.431373%);fill-opacity:1;" d="M 37.789062 31.335938 C 37.988281 31.402344 38.1875 31.46875 38.390625 31.535156 C 38.390625 33.070312 38.390625 34.605469 38.390625 36.1875 C 37.613281 35.402344 37.5625 34.949219 37.558594 33.871094 C 37.5625 33.734375 37.5625 33.597656 37.5625 33.457031 C 37.5625 33.320312 37.5625 33.183594 37.558594 33.042969 C 37.5625 32.417969 37.589844 31.929688 37.789062 31.335938 Z M 37.789062 31.335938 "/>
<path style=" stroke:none;fill-rule:nonzero;fill:rgb(83.92157%,75.294119%,46.666667%);fill-opacity:1;" d="M 40.804688 33.152344 C 41.003906 33.152344 41.203125 33.152344 41.40625 33.152344 C 41.414062 33.75 41.417969 34.351562 41.417969 34.949219 C 41.421875 35.117188 41.421875 35.289062 41.425781 35.464844 C 41.425781 35.625 41.425781 35.789062 41.425781 35.957031 C 41.425781 36.105469 41.429688 36.257812 41.429688 36.414062 C 41.40625 36.792969 41.40625 36.792969 41.207031 37.195312 C 41.074219 37.195312 40.941406 37.195312 40.804688 37.195312 C 40.804688 35.863281 40.804688 34.527344 40.804688 33.152344 Z M 40.804688 33.152344 "/>
<path style=" stroke:none;fill-rule:nonzero;fill:rgb(89.019608%,82.745099%,52.549022%);fill-opacity:1;" d="M 35.375 21.429688 C 35.507812 21.496094 35.640625 21.5625 35.777344 21.628906 C 35.578125 21.929688 35.578125 21.929688 35.375 22.238281 C 35.304688 22.746094 35.304688 22.746094 35.292969 23.3125 C 35.285156 23.519531 35.277344 23.730469 35.269531 23.941406 C 35.265625 24.160156 35.257812 24.375 35.25 24.601562 C 35.242188 24.820312 35.234375 25.039062 35.226562 25.261719 C 35.207031 25.804688 35.191406 26.34375 35.175781 26.886719 C 35.042969 26.886719 34.910156 26.886719 34.773438 26.886719 C 34.773438 25.152344 34.773438 23.417969 34.773438 21.628906 C 34.972656 21.5625 35.171875 21.496094 35.375 21.429688 Z M 35.375 21.429688 "/>
<path style=" stroke:none;fill-rule:nonzero;fill:rgb(47.843137%,29.411766%,14.509805%);fill-opacity:1;" d="M 63.316406 44.472656 C 63.515625 44.472656 63.714844 44.472656 63.917969 44.472656 C 63.917969 45.675781 63.917969 46.875 63.917969 48.113281 C 63.71875 48.113281 63.523438 48.113281 63.316406 48.113281 C 63.316406 46.914062 63.316406 45.710938 63.316406 44.472656 Z M 63.316406 44.472656 "/>
<path style=" stroke:none;fill-rule:nonzero;fill:rgb(67.450982%,52.549022%,27.843139%);fill-opacity:1;" d="M 38.792969 32.144531 C 39.191406 32.34375 39.191406 32.34375 39.597656 32.546875 C 39.53125 32.613281 39.464844 32.679688 39.398438 32.75 C 39.367188 33.078125 39.347656 33.410156 39.332031 33.742188 C 39.324219 33.941406 39.316406 34.140625 39.308594 34.347656 C 39.296875 34.664062 39.296875 34.664062 39.285156 34.984375 C 39.273438 35.195312 39.265625 35.40625 39.257812 35.625 C 39.234375 36.148438 39.214844 36.671875 39.195312 37.195312 C 39.0625 37.128906 38.929688 37.0625 38.792969 36.996094 C 38.792969 35.394531 38.792969 33.792969 38.792969 32.144531 Z M 38.792969 32.144531 "/>
<path style=" stroke:none;fill-rule:nonzero;fill:rgb(68.235296%,54.11765%,29.411766%);fill-opacity:1;" d="M 42.011719 28.503906 C 42.242188 29.222656 42.195312 29.828125 42.125 30.574219 C 42.101562 30.792969 42.082031 31.011719 42.0625 31.234375 C 42.042969 31.402344 42.027344 31.566406 42.011719 31.738281 C 41.546875 31.671875 41.082031 31.605469 40.601562 31.535156 C 40.871094 30.808594 41.210938 30.179688 41.609375 29.515625 C 41.75 29.179688 41.882812 28.84375 42.011719 28.503906 Z M 42.011719 28.503906 "/>
<path style=" stroke:none;fill-rule:nonzero;fill:rgb(69.411767%,55.29412%,30.19608%);fill-opacity:1;" d="M 36.382812 28.300781 C 36.847656 28.367188 37.3125 28.433594 37.789062 28.503906 C 37.789062 29.183594 37.671875 29.363281 37.3125 29.917969 C 37.179688 30.125 37.179688 30.125 37.042969 30.335938 C 36.824219 30.667969 36.601562 31 36.382812 31.335938 C 36.382812 30.332031 36.382812 29.332031 36.382812 28.300781 Z M 36.382812 28.300781 "/>
<path style=" stroke:none;fill-rule:nonzero;fill:rgb(46.27451%,27.450982%,11.764706%);fill-opacity:1;" d="M 32.363281 44.472656 C 32.5625 44.472656 32.761719 44.472656 32.964844 44.472656 C 32.964844 45.609375 32.964844 46.742188 32.964844 47.910156 C 32.765625 47.910156 32.566406 47.910156 32.363281 47.910156 C 32.363281 46.777344 32.363281 45.644531 32.363281 44.472656 Z M 32.363281 44.472656 "/>
<path style=" stroke:none;fill-rule:nonzero;fill:rgb(54.11765%,37.254903%,18.82353%);fill-opacity:1;" d="M 54.070312 45.28125 C 54.136719 45.28125 54.203125 45.28125 54.269531 45.28125 C 54.269531 46.882812 54.269531 48.484375 54.269531 50.136719 C 54.535156 50.203125 54.800781 50.269531 55.074219 50.335938 C 54.742188 50.335938 54.410156 50.335938 54.070312 50.335938 C 54.003906 49.804688 53.9375 49.269531 53.871094 48.71875 C 53.804688 48.71875 53.738281 48.71875 53.667969 48.71875 C 53.695312 48.296875 53.726562 47.878906 53.757812 47.457031 C 53.773438 47.222656 53.789062 46.988281 53.804688 46.746094 C 53.855469 46.230469 53.925781 45.777344 54.070312 45.28125 Z M 54.070312 45.28125 "/>
<path style=" stroke:none;fill-rule:nonzero;fill:rgb(63.137257%,47.058824%,23.921569%);fill-opacity:1;" d="M 14.671875 55.996094 C 15.363281 56.117188 15.96875 56.296875 16.613281 56.574219 C 16.78125 56.644531 16.949219 56.71875 17.125 56.792969 C 17.296875 56.867188 17.472656 56.941406 17.652344 57.019531 C 17.917969 57.136719 17.917969 57.136719 18.1875 57.25 C 18.625 57.4375 19.0625 57.628906 19.496094 57.816406 C 19.429688 58.015625 19.363281 58.21875 19.296875 58.421875 C 17.769531 57.6875 16.246094 56.957031 14.671875 56.199219 C 14.671875 56.132812 14.671875 56.066406 14.671875 55.996094 Z M 14.671875 55.996094 "/>
<path style=" stroke:none;fill-rule:nonzero;fill:rgb(66.274512%,51.372552%,27.450982%);fill-opacity:1;" d="M 21.507812 13.140625 C 21.574219 13.273438 21.640625 13.40625 21.707031 13.542969 C 21.285156 13.6875 20.863281 13.824219 20.441406 13.960938 C 20.203125 14.039062 19.96875 14.117188 19.726562 14.195312 C 19.09375 14.351562 19.09375 14.351562 18.492188 14.152344 C 19.320312 13.421875 20.425781 12.777344 21.507812 13.140625 Z M 21.507812 13.140625 "/>
<path style=" stroke:none;fill-rule:nonzero;fill:rgb(63.137257%,47.058824%,25.098041%);fill-opacity:1;" d="M 58.695312 13.542969 C 58.976562 13.636719 59.261719 13.730469 59.546875 13.824219 C 59.785156 13.898438 59.785156 13.898438 60.027344 13.980469 C 60.476562 14.140625 60.886719 14.332031 61.304688 14.554688 C 61.304688 14.621094 61.304688 14.6875 61.304688 14.757812 C 60.246094 14.667969 59.292969 14.539062 58.292969 14.152344 C 58.425781 13.949219 58.558594 13.75 58.695312 13.542969 Z M 58.695312 13.542969 "/>
<path style=" stroke:none;fill-rule:nonzero;fill:rgb(47.058824%,28.235295%,13.333334%);fill-opacity:1;" d="M 56.882812 46.898438 C 57.082031 46.898438 57.28125 46.898438 57.488281 46.898438 C 57.488281 47.699219 57.488281 48.5 57.488281 49.324219 C 57.289062 49.324219 57.089844 49.324219 56.882812 49.324219 C 56.882812 48.527344 56.882812 47.726562 56.882812 46.898438 Z M 56.882812 46.898438 "/>
<path style=" stroke:none;fill-rule:nonzero;fill:rgb(43.529412%,23.921569%,8.235294%);fill-opacity:1;" d="M 14.472656 46.898438 C 14.671875 46.898438 14.871094 46.898438 15.074219 46.898438 C 15.074219 47.699219 15.074219 48.5 15.074219 49.324219 C 14.875 49.324219 14.675781 49.324219 14.472656 49.324219 C 14.472656 48.527344 14.472656 47.726562 14.472656 46.898438 Z M 14.472656 46.898438 "/>
<path style=" stroke:none;fill-rule:nonzero;fill:rgb(76.862746%,65.490198%,38.82353%);fill-opacity:1;" d="M 45.023438 32.953125 C 45.089844 32.953125 45.15625 32.953125 45.226562 32.953125 C 45.292969 34.550781 45.359375 36.152344 45.425781 37.804688 C 45.027344 38.003906 45.027344 38.003906 44.625 38.207031 C 44.65625 38.097656 44.6875 37.984375 44.71875 37.867188 C 44.835938 37.355469 44.867188 36.875 44.886719 36.347656 C 44.894531 36.148438 44.90625 35.949219 44.914062 35.746094 C 44.921875 35.542969 44.929688 35.335938 44.9375 35.125 C 44.945312 34.917969 44.953125 34.707031 44.964844 34.492188 C 44.984375 33.980469 45.003906 33.464844 45.023438 32.953125 Z M 45.023438 32.953125 "/>
<path style=" stroke:none;fill-rule:nonzero;fill:rgb(62.352943%,45.882353%,23.137255%);fill-opacity:1;" d="M 42.210938 21.628906 C 42.011719 21.628906 41.8125 21.628906 41.609375 21.628906 C 41.609375 22.164062 41.609375 22.699219 41.609375 23.246094 C 41.101562 22.769531 40.828125 22.507812 40.601562 21.832031 C 41.21875 21.457031 41.527344 21.386719 42.210938 21.628906 Z M 42.210938 21.628906 "/>
<path style=" stroke:none;fill-rule:nonzero;fill:rgb(61.960787%,45.490196%,22.745098%);fill-opacity:1;" d="M 36.984375 36.996094 C 37.316406 37.328125 37.648438 37.660156 37.988281 38.003906 C 37.921875 38.140625 37.855469 38.273438 37.789062 38.410156 C 37.171875 38.535156 37.171875 38.535156 36.582031 38.613281 C 36.714844 38.546875 36.847656 38.476562 36.984375 38.410156 C 36.984375 37.941406 36.984375 37.476562 36.984375 36.996094 Z M 36.984375 36.996094 "/>
<path style=" stroke:none;fill-rule:nonzero;fill:rgb(62.7451%,46.27451%,23.137255%);fill-opacity:1;" d="M 41.40625 30.121094 C 41.472656 30.121094 41.539062 30.121094 41.609375 30.121094 C 41.675781 30.65625 41.742188 31.1875 41.808594 31.738281 C 41.210938 31.636719 41.210938 31.636719 40.601562 31.535156 C 40.820312 30.945312 40.960938 30.570312 41.40625 30.121094 Z M 41.40625 30.121094 "/>
<path style=" stroke:none;fill-rule:nonzero;fill:rgb(52.156866%,34.901962%,16.862746%);fill-opacity:1;" d="M 28.742188 44.878906 C 29.167969 45.730469 29.179688 46.171875 29.144531 47.101562 C 28.945312 47.101562 28.746094 47.101562 28.542969 47.101562 C 28.609375 46.367188 28.675781 45.636719 28.742188 44.878906 Z M 28.742188 44.878906 "/>
<path style=" stroke:none;fill-rule:nonzero;fill:rgb(62.352943%,45.882353%,22.745098%);fill-opacity:1;" d="M 36.785156 28.300781 C 37.183594 28.433594 37.578125 28.570312 37.988281 28.707031 C 37.726562 29.113281 37.460938 29.519531 37.1875 29.917969 C 37.121094 29.917969 37.054688 29.917969 36.984375 29.917969 C 36.917969 29.386719 36.851562 28.851562 36.785156 28.300781 Z M 36.785156 28.300781 "/>
<path style=" stroke:none;fill-rule:nonzero;fill:rgb(61.56863%,45.09804%,22.745098%);fill-opacity:1;" d="M 62.511719 55.996094 C 61.519531 56.496094 61.519531 56.496094 60.503906 57.007812 C 60.503906 56.808594 60.503906 56.609375 60.503906 56.402344 C 61.835938 55.769531 61.835938 55.769531 62.511719 55.996094 Z M 62.511719 55.996094 "/>
<path style=" stroke:none;fill-rule:nonzero;fill:rgb(59.607846%,42.745098%,21.960784%);fill-opacity:1;" d="M 62.714844 14.960938 C 62.78125 15.09375 62.847656 15.226562 62.914062 15.363281 C 62.660156 15.339844 62.410156 15.3125 62.148438 15.289062 C 61.933594 15.265625 61.933594 15.265625 61.71875 15.246094 C 61.304688 15.160156 61.304688 15.160156 60.703125 14.757812 C 61.5 14.488281 61.933594 14.683594 62.714844 14.960938 Z M 62.714844 14.960938 "/>
<path style=" stroke:none;fill-rule:nonzero;fill:rgb(47.450981%,28.235295%,11.764706%);fill-opacity:1;" d="M 22.109375 45.082031 C 22.175781 45.082031 22.242188 45.082031 22.3125 45.082031 C 22.378906 45.746094 22.445312 46.414062 22.511719 47.101562 C 22.3125 47.101562 22.113281 47.101562 21.910156 47.101562 C 21.976562 46.433594 22.042969 45.769531 22.109375 45.082031 Z M 22.109375 45.082031 "/>
<path style=" stroke:none;fill-rule:nonzero;fill:rgb(72.941178%,60.392159%,34.117648%);fill-opacity:1;" d="M 38.59375 22.238281 C 38.890625 22.4375 38.890625 22.4375 39.195312 22.640625 C 39.046875 23.601562 39.046875 23.601562 38.59375 24.054688 C 38.59375 23.457031 38.59375 22.855469 38.59375 22.238281 Z M 38.59375 22.238281 "/>
<path style=" stroke:none;fill-rule:nonzero;fill:rgb(69.01961%,54.509807%,29.803923%);fill-opacity:1;" d="M 20.90625 12.9375 C 21.507812 13.140625 21.507812 13.140625 21.707031 13.542969 C 21.179688 13.609375 20.648438 13.679688 20.101562 13.746094 C 20.367188 13.480469 20.632812 13.214844 20.90625 12.9375 Z M 20.90625 12.9375 "/>
</g>
</svg>
